<?xml version="1.0" standalone="no"?>
<svg version="1.0" xmlns="http://www.w3.org/2000/svg"
 width="1694" height="256" viewBox="0 0 1694 256">
<g transform="translate(0.000000,256.000000) scale(0.100000,-0.100000)"
fill="#232529" stroke="none">
<path d="M10 1280 l0 -1280 1283 2 1282 3 3 113 3 112 -1176 0 -1175 0 0 1165
0 1165 -110 0 -110 0 0 -1280z"/>
<path d="M445 2547 c-57 -23 -88 -51 -111 -102 -31 -66 -30 -111 4 -176 22
-43 38 -59 81 -81 65 -34 110 -35 178 -4 l52 24 293 -192 293 -193 6 -69 c3
-38 10 -77 14 -87 6 -15 -30 -56 -182 -209 l-189 -190 -41 12 c-164 50 -309
-126 -230 -280 59 -118 223 -144 317 -50 l21 21 608 -232 609 -232 6 -47 c17
-130 160 -207 281 -151 192 88 126 376 -85 375 -58 -1 -103 -18 -134 -53 -11
-12 -24 -21 -30 -21 -6 0 -281 103 -611 229 l-599 229 -11 49 c-6 27 -15 54
-19 61 -5 8 58 79 185 207 168 170 194 193 211 184 53 -29 176 -2 219 47 80
92 65 237 -32 301 -58 38 -141 43 -204 13 l-45 -22 -298 196 -297 195 3 53 c6
105 -72 195 -179 203 -30 3 -67 -1 -84 -8z m125 -82 c41 -21 60 -53 60 -103 0
-71 -50 -122 -120 -122 -92 0 -148 96 -105 180 28 55 105 76 165 45z m915
-599 c40 -17 75 -68 75 -111 0 -42 -33 -92 -74 -111 -69 -33 -157 13 -171 89
-9 48 19 104 65 129 42 22 60 22 105 4z m-635 -671 c35 -18 60 -62 60 -105 0
-101 -122 -159 -199 -94 -114 96 6 268 139 199z m1584 -604 c62 -41 76 -126
30 -180 -71 -85 -214 -38 -214 71 0 101 103 162 184 109z"/>
<path d="M8870 2044 l0 -505 -47 62 c-54 71 -141 135 -230 170 -70 27 -241 38
-324 20 -255 -55 -439 -303 -439 -590 1 -279 148 -500 388 -583 96 -33 258
-33 355 0 111 39 209 113 271 206 l26 39 0 -117 0 -116 80 0 80 0 0 960 0 960
-80 0 -80 0 0 -506z m-360 -384 c234 -37 384 -242 367 -503 -15 -242 -179
-411 -412 -425 -189 -11 -344 78 -421 243 -137 290 19 636 308 684 74 12 84
12 158 1z"/>
<path d="M15920 1590 l0 -960 80 0 80 0 0 393 c0 236 4 407 10 429 26 90 120
183 213 209 60 17 184 14 235 -5 70 -26 118 -70 154 -144 l33 -67 3 -407 3
-408 79 0 80 0 0 408 c0 433 -3 459 -51 559 -33 68 -116 146 -186 175 -51 20
-75 23 -193 23 -131 0 -137 -1 -203 -32 -42 -20 -88 -53 -122 -87 l-55 -55 0
465 0 464 -80 0 -80 0 0 -960z"/>
<path d="M3210 1550 l0 -920 85 0 85 0 0 385 0 385 108 0 107 -1 290 -384 290
-385 103 0 c56 0 102 2 102 5 0 3 -135 180 -300 393 l-299 387 89 22 c109 26
176 61 250 130 147 136 197 380 119 587 -58 157 -212 271 -413 306 -33 5 -185
10 -338 10 l-278 0 0 -920z m603 765 c208 -55 310 -210 285 -432 -14 -124 -86
-225 -201 -281 -89 -43 -146 -52 -342 -52 l-175 0 0 397 0 396 188 -6 c117 -4
209 -12 245 -22z"/>
<path d="M7439 2181 c-56 -57 -30 -156 47 -175 80 -20 151 63 120 139 -30 70
-114 88 -167 36z"/>
<path d="M4881 1785 c-84 -24 -170 -75 -237 -140 -115 -113 -164 -229 -172
-407 -6 -143 7 -215 57 -323 65 -139 185 -247 329 -297 95 -33 258 -33 354 0
91 31 195 107 252 182 l46 62 0 -116 0 -116 80 0 80 0 0 570 0 570 -80 0 -80
0 0 -116 0 -115 -47 63 c-53 70 -139 133 -230 169 -75 29 -269 37 -352 14z
m269 -125 c242 -38 401 -274 363 -538 -37 -249 -223 -405 -465 -390 -185 12
-323 114 -385 284 -103 285 56 598 327 643 76 12 86 12 160 1z"/>
<path d="M6450 1777 c-36 -12 -86 -35 -112 -50 -56 -33 -141 -115 -165 -160
l-18 -32 -3 118 -3 117 -79 0 -80 0 0 -865 0 -865 80 0 80 0 2 410 3 410 40
-54 c223 -301 688 -283 899 36 95 143 125 363 76 550 -48 179 -216 346 -395
393 -91 23 -245 20 -325 -8z m210 -117 c95 -15 178 -59 243 -129 95 -103 133
-216 124 -366 -15 -248 -175 -418 -408 -433 -189 -12 -342 75 -423 241 -141
287 15 637 306 686 74 12 84 12 158 1z"/>
<path d="M9712 1780 c-187 -50 -346 -192 -412 -366 -44 -119 -44 -301 0 -430
86 -248 347 -408 640 -391 176 9 317 73 433 196 106 112 156 246 157 412 0
258 -156 479 -402 567 -101 36 -306 42 -416 12z m308 -131 c227 -52 370 -272
339 -520 -33 -262 -276 -435 -545 -390 -265 45 -426 287 -374 561 22 116 108
238 208 297 98 58 254 79 372 52z"/>
<path d="M11097 1785 c-140 -39 -284 -160 -351 -295 -146 -299 -38 -686 234
-834 153 -83 362 -86 521 -5 59 29 158 118 206 184 l22 30 0 -135 c0 -179 -12
-269 -49 -347 -51 -109 -161 -195 -286 -223 -72 -16 -220 -13 -284 6 -121 35
-249 129 -280 204 -7 17 -17 30 -21 30 -5 0 -36 -13 -69 -30 -68 -34 -68 -33
-9 -121 110 -163 320 -249 579 -236 135 7 210 25 305 75 126 66 208 173 252
327 15 53 17 136 21 708 l4 647 -81 0 -81 0 0 -115 c0 -63 -3 -115 -7 -115 -5
0 -19 19 -33 41 -53 87 -167 167 -289 203 -67 20 -234 20 -304 1z m284 -129
c215 -46 349 -221 349 -455 -1 -146 -35 -241 -122 -336 -73 -80 -169 -125
-280 -132 -149 -10 -260 30 -352 127 -92 96 -129 196 -128 345 1 195 93 346
256 421 94 43 174 51 277 30z"/>
<path d="M12559 1777 c-69 -29 -119 -68 -162 -127 l-32 -45 -3 83 -3 82 -79 0
-80 0 0 -570 0 -570 80 0 80 0 0 383 c0 460 0 459 93 552 46 46 76 66 115 79
63 21 164 22 221 2 l42 -14 34 68 34 68 -58 16 c-87 24 -213 21 -282 -7z"/>
<path d="M13360 1781 c-95 -31 -163 -72 -231 -140 -239 -239 -233 -666 12
-901 212 -203 566 -197 766 13 32 34 66 73 75 87 16 24 17 21 17 -92 l1 -118
80 0 80 0 0 570 0 570 -80 0 -79 0 -3 -116 -3 -117 -38 56 c-62 90 -169 162
-284 192 -80 21 -243 19 -313 -4z m279 -122 c244 -39 398 -268 362 -536 -34
-245 -224 -405 -466 -391 -237 14 -399 185 -412 433 -9 164 34 281 138 380 65
63 138 100 219 114 76 12 87 12 159 0z"/>
<path d="M14950 1781 c-124 -40 -215 -104 -276 -195 l-34 -51 0 118 0 117 -80
0 -80 0 0 -865 0 -865 80 0 80 0 0 412 0 411 39 -55 c63 -88 160 -157 271
-194 69 -23 241 -26 315 -5 198 56 354 226 401 437 24 111 16 274 -19 374 -64
181 -210 320 -384 365 -80 21 -243 19 -313 -4z m200 -121 c277 -44 438 -348
339 -639 -41 -120 -146 -228 -262 -268 -78 -27 -243 -25 -317 5 -79 32 -149
88 -197 160 -189 281 -36 690 277 741 76 12 86 12 160 1z"/>
<path d="M7430 1200 l0 -570 80 0 80 0 0 570 0 570 -80 0 -80 0 0 -570z"/>
</g>
</svg>
