<?xml version="1.0" standalone="no"?>
<svg version="1.0" xmlns="http://www.w3.org/2000/svg"
 width="1024" height="1024" viewBox="0 0 1024 1024" role="img">
<g transform="translate(0.000000,1024.000000) scale(0.100000,-0.100000)"
fill="#232529" stroke="none">
<path d="M10 5120 l0 -5120 5110 0 5110 0 0 440 0 440 -4675 0 -4675 0 0 4680
0 4680 -435 0 -435 0 0 -5120z"/>
<path d="M1895 10200 c-408 -62 -705 -421 -681 -825 7 -125 26 -196 81 -310
79 -163 196 -280 362 -361 101 -50 238 -84 338 -84 177 0 373 68 498 172 48
40 48 40 75 22 27 -17 2364 -1555 2370 -1560 2 -1 -3 -33 -11 -71 -44 -195
-23 -385 62 -550 11 -23 21 -47 21 -52 0 -10 -1487 -1543 -1503 -1550 -5 -2
-39 11 -75 27 -102 47 -191 65 -322 65 -134 0 -217 -17 -327 -68 -302 -139
-477 -429 -460 -759 7 -133 25 -203 78 -313 151 -308 502 -488 838 -429 179
31 304 97 435 228 48 49 94 88 101 86 6 -2 1101 -419 2432 -928 l2420 -925 6
-110 c7 -133 26 -213 78 -322 180 -378 633 -550 1021 -387 122 51 253 156 333
264 244 333 184 813 -135 1075 -289 236 -688 245 -986 20 -40 -30 -95 -81
-122 -113 l-49 -59 -2435 931 -2436 931 -4 125 c-5 132 -28 221 -83 330 l-25
49 756 775 c415 427 758 776 762 776 4 0 17 -7 29 -15 11 -8 63 -29 114 -46
172 -58 375 -51 546 19 220 90 398 291 462 523 119 429 -141 869 -579 980 -72
18 -103 21 -215 16 -184 -7 -301 -47 -442 -150 l-62 -46 -1183 780 c-651 429
-1191 785 -1201 792 -17 11 -17 15 -1 82 24 100 22 277 -5 378 -31 117 -101
244 -183 332 -82 88 -138 130 -236 179 -131 66 -317 97 -457 76z m230 -305
c129 -34 261 -138 319 -253 134 -265 15 -577 -265 -694 -46 -19 -72 -22 -174
-22 -101 0 -129 3 -177 23 -125 49 -241 165 -289 289 -27 69 -36 206 -20 282
57 267 342 443 606 375z m3729 -2435 c245 -84 386 -345 321 -595 -49 -187
-218 -338 -410 -364 -296 -42 -564 191 -565 489 0 237 165 437 405 490 59 13
182 4 249 -20z m-2621 -2645 c160 -42 291 -162 348 -321 30 -84 31 -236 0
-318 -58 -159 -188 -279 -348 -321 -74 -19 -173 -19 -248 0 -187 49 -335 216
-365 411 -37 238 126 485 361 548 71 19 181 20 252 1z m6367 -2424 c222 -88
358 -335 311 -564 -38 -180 -187 -335 -368 -382 -215 -56 -462 57 -561 256
-39 80 -51 135 -52 224 0 139 46 251 145 350 66 66 134 107 216 130 78 22 236
14 309 -14z"/>
</g>
</svg>
